<mxfile host="app.diagrams.net" agent="Mozilla/5.0 (Windows NT 10.0; Win64; x64) AppleWebKit/537.36 (KHTML, like Gecko) Chrome/121.0.0.0 Safari/537.36" version="24.7.7">
  <diagram name="Page-1" id="AM41eU3sS9hWgiFTrv1i">
    <mxGraphModel dx="1434" dy="866" grid="1" gridSize="10" guides="1" tooltips="1" connect="1" arrows="1" fold="1" page="1" pageScale="1" pageWidth="850" pageHeight="1100" math="0" shadow="0">
      <root>
        <mxCell id="0" />
        <mxCell id="1" parent="0" />
        <mxCell id="EPLM1tE3Qb1qoYAGGyqS-1" value="Client Fiber" style="image;html=1;image=img/lib/clip_art/networking/Switch_128x128.png;fontSize=16;fontStyle=1" vertex="1" parent="1">
          <mxGeometry x="90" y="190" width="80" height="80" as="geometry" />
        </mxCell>
        <mxCell id="EPLM1tE3Qb1qoYAGGyqS-2" value="&lt;div style=&quot;font-size: 16px;&quot;&gt;&lt;div style=&quot;font-size: 16px;&quot;&gt;Active Vlans&lt;/div&gt;&lt;div style=&quot;font-size: 16px;&quot;&gt;50&amp;nbsp; - 1/0/20 - Tourism-C8200-Active -&amp;nbsp;&lt;/div&gt;&lt;div style=&quot;font-size: 16px;&quot;&gt;200 - 2/0/30 -&amp;nbsp; B2G-BOI_Line-Backup&lt;/div&gt;&lt;div style=&quot;font-size: 16px;&quot;&gt;349 - 1/0/5 - PMO-pki-fiber&lt;/div&gt;&lt;div style=&quot;font-size: 16px;&quot;&gt;466 - 1/0/6 - merkava-service-jer-active&lt;/div&gt;&lt;div style=&quot;font-size: 16px;&quot;&gt;630 - 2/0/4 - Kneset-Outside-SDH&lt;/div&gt;&lt;div style=&quot;font-size: 16px;&quot;&gt;631 - 1/0/4 -&amp;nbsp; Kneset-faiber&amp;nbsp;&lt;/div&gt;&lt;div style=&quot;font-size: 16px;&quot;&gt;999 - 2/0/5 - MNG&lt;/div&gt;&lt;/div&gt;&lt;div style=&quot;font-size: 16px;&quot;&gt;&lt;br style=&quot;font-size: 16px;&quot;&gt;&lt;/div&gt;" style="text;html=1;align=left;verticalAlign=middle;resizable=0;points=[];autosize=1;strokeColor=none;fillColor=none;fontStyle=1;fontSize=16;" vertex="1" parent="1">
          <mxGeometry x="70" y="20" width="300" height="190" as="geometry" />
        </mxCell>
        <mxCell id="EPLM1tE3Qb1qoYAGGyqS-3" value="&lt;b&gt;&lt;font style=&quot;font-size: 15px;&quot;&gt;Trunk INTERFACES&lt;/font&gt;&lt;/b&gt;&lt;div&gt;&lt;b&gt;&lt;font style=&quot;font-size: 15px;&quot;&gt;1/0/1 -&amp;nbsp;&lt;/font&gt;&lt;/b&gt;&lt;span style=&quot;background-color: initial; font-size: 15px;&quot;&gt;&lt;b&gt;Merkava\Mofe-Local - 999&lt;/b&gt;&lt;/span&gt;&lt;/div&gt;&lt;div&gt;&lt;span style=&quot;background-color: initial; font-size: 15px;&quot;&gt;&lt;b&gt;1/0/8 -&amp;nbsp;&lt;/b&gt;&lt;/span&gt;&lt;span style=&quot;background-color: initial; font-size: 15px;&quot;&gt;&lt;b&gt;TO_PMO_SERF_PILOT_ENCS - 348+999&lt;/b&gt;&lt;/span&gt;&lt;/div&gt;&lt;div&gt;&lt;span style=&quot;background-color: initial; font-size: 15px;&quot;&gt;&lt;b&gt;1/0/14 -&amp;nbsp;&lt;/b&gt;&lt;/span&gt;&lt;span style=&quot;background-color: initial; font-size: 15px;&quot;&gt;&lt;b&gt;SW-Boi-B2G-New - 999&lt;/b&gt;&lt;/span&gt;&lt;/div&gt;&lt;div&gt;&lt;span style=&quot;background-color: initial; font-size: 15px;&quot;&gt;&lt;b&gt;1/0/23 -&amp;nbsp;&lt;/b&gt;&lt;/span&gt;&lt;span style=&quot;background-color: initial; font-size: 15px;&quot;&gt;&lt;b&gt;MNG.135.252 - 999&lt;/b&gt;&lt;/span&gt;&lt;/div&gt;&lt;div&gt;&lt;span style=&quot;background-color: initial; font-size: 15px;&quot;&gt;&lt;b&gt;1+2/0/25 -&amp;nbsp;&lt;/b&gt;&lt;/span&gt;&lt;span style=&quot;background-color: initial; font-size: 15px;&quot;&gt;&lt;b&gt;To-Client_Stack-1 -&amp;nbsp;&lt;/b&gt;&lt;/span&gt;&lt;span style=&quot;background-color: initial; font-size: 15px;&quot;&gt;&lt;b&gt;50 200 348 to 349 363 466 630 to 631&lt;/b&gt;&lt;/span&gt;&lt;/div&gt;&lt;div&gt;&lt;span style=&quot;background-color: initial; font-size: 15px;&quot;&gt;&lt;b&gt;2/0/8 -&amp;nbsp;&lt;/b&gt;&lt;/span&gt;&lt;span style=&quot;background-color: initial; font-size: 15px;&quot;&gt;&lt;b&gt;Civil -363+999&lt;/b&gt;&lt;/span&gt;&lt;/div&gt;&lt;div&gt;&lt;br&gt;&lt;/div&gt;" style="text;html=1;align=left;verticalAlign=middle;resizable=0;points=[];autosize=1;strokeColor=none;fillColor=none;" vertex="1" parent="1">
          <mxGeometry x="50" y="300" width="490" height="150" as="geometry" />
        </mxCell>
        <mxCell id="EPLM1tE3Qb1qoYAGGyqS-4" value="&lt;b style=&quot;font-size: 15px;&quot;&gt;&lt;font style=&quot;font-size: 15px;&quot;&gt;Active Ports&amp;nbsp;&lt;/font&gt;&lt;/b&gt;&lt;div style=&quot;font-size: 15px;&quot;&gt;&lt;b style=&quot;&quot;&gt;&lt;font style=&quot;font-size: 15px;&quot;&gt;13 (check If BOI )&lt;/font&gt;&lt;/b&gt;&lt;/div&gt;" style="text;html=1;align=center;verticalAlign=middle;resizable=0;points=[];autosize=1;strokeColor=none;fillColor=none;" vertex="1" parent="1">
          <mxGeometry x="210" y="200" width="150" height="50" as="geometry" />
        </mxCell>
      </root>
    </mxGraphModel>
  </diagram>
</mxfile>
